<svg width="100" height="100" viewBox="0 0 100 100" fill="none" xmlns="http://www.w3.org/2000/svg">
<rect y="0.990112" width="100" height="99.0099" rx="13" fill="#F8F8F8"/>
<path d="M34.9292 38.514C34.8382 38.4837 34.7927 38.4078 34.7927 38.2865C34.7927 38.1348 34.8685 37.9377 35.0202 37.695C36.1425 35.9357 37.4165 34.419 38.8422 33.145C40.2679 31.8407 41.7997 30.8397 43.4377 30.142C45.0757 29.414 46.7289 29.05 48.3972 29.05C50.0655 29.05 51.294 29.4292 52.0827 30.1875C52.8714 30.9155 53.2657 31.9468 53.2657 33.2815C53.2657 34.4038 53.0837 35.602 52.7197 36.876C52.386 38.15 51.931 39.5605 51.3547 41.1075C50.8087 42.6242 50.202 44.338 49.5347 46.249C48.8977 48.16 48.2455 50.3137 47.5782 52.71L47.1687 52.528C48.2607 49.0397 49.5044 45.8547 50.8997 42.973C52.3254 40.0913 53.8572 37.6192 55.4952 35.5565C57.1332 33.4635 58.8319 31.8558 60.5912 30.7335C62.3809 29.6112 64.1705 29.05 65.9602 29.05C67.8409 29.05 69.221 29.7325 70.1007 31.0975C70.9804 32.4625 71.2989 34.146 71.0562 36.148C70.8742 37.604 70.4799 38.8477 69.8732 39.879C69.2665 40.9103 68.5082 41.699 67.5982 42.245C66.7185 42.791 65.7327 43.064 64.6407 43.064C63.5184 43.064 62.6084 42.791 61.9107 42.245C61.213 41.699 60.8642 40.8952 60.8642 39.8335C60.8642 39.1662 60.94 38.5292 61.0917 37.9225C61.2434 37.3158 61.3192 36.7547 61.3192 36.239C61.3192 35.6323 61.213 35.1622 61.0007 34.8285C60.8187 34.4948 60.485 34.328 59.9997 34.328C58.9684 34.328 57.7399 35.0712 56.3142 36.5575C54.8885 38.0135 53.4174 40.2127 51.9007 43.155C50.384 46.0973 48.9584 49.7828 47.6237 54.2115C47.0474 56.2438 46.562 57.9728 46.1677 59.3985C45.8037 60.8242 45.6217 62.0223 45.6217 62.993C45.6217 63.721 45.7885 64.2822 46.1222 64.6765C46.4862 65.0708 46.835 65.4045 47.1687 65.6775C47.5327 65.9505 47.7147 66.2538 47.7147 66.5875C47.7147 67.1032 47.2294 67.6947 46.2587 68.362C45.288 69.0293 43.9837 69.6057 42.3457 70.091C40.738 70.6067 38.9635 70.8645 37.0222 70.8645C35.7785 70.8645 34.8837 70.6218 34.3377 70.1365C33.7917 69.6512 33.5187 68.9535 33.5187 68.0435C33.5187 67.1335 33.7159 66.0263 34.1102 64.722L41.4357 40.789C42.194 38.2713 42.5125 36.5575 42.3912 35.6475C42.2699 34.7375 41.8149 34.2825 41.0262 34.2825C40.4195 34.2825 39.7219 34.5403 38.9332 35.056C38.1445 35.5717 37.0829 36.5878 35.7482 38.1045C35.5965 38.2865 35.4449 38.4078 35.2932 38.4685C35.1719 38.5292 35.0505 38.5443 34.9292 38.514Z" fill="#1F2328"/>
</svg>
