<svg xmlns="http://www.w3.org/2000/svg" width="20" height="17" fill="none" viewBox="0 0 20 17"><path stroke="#000" stroke-linecap="round" stroke-width="1.929" d="M18.1429 12.7857H7.42857M7.42857 12.7857C7.42857 14.561 5.98954 16 4.21429 16C2.43909 16 1 14.561 1 12.7857C1 11.0105 2.43909 9.57143 4.21429 9.57143C5.98954 9.57143 7.42857 11.0105 7.42857 12.7857ZM11.7143 4.21429H1M11.7143 4.21429C11.7143 5.98954 13.1533 7.42857 14.9286 7.42857C16.7038 7.42857 18.1429 5.98954 18.1429 4.21429C18.1429 2.43909 16.7038 1 14.9286 1C13.1533 1 11.7143 2.43909 11.7143 4.21429Z"/></svg>