<svg xmlns="http://www.w3.org/2000/svg" width="511" height="357" fill="none" viewBox="0 0 511 357"><circle cx="178.5" cy="178.5" r="178.5" fill="#F39D1A"/><circle cx="332.5" cy="178.5" r="178.5" fill="#EE4928"/><path fill="#F96F11" fill-rule="evenodd" d="M255.5 340.168C315.536 311.418 357 250.093 357 179.084C357 108.075 315.536 46.75 255.5 18C195.464 46.75 154 108.075 154 179.084C154 250.093 195.464 311.418 255.5 340.168Z" clip-rule="evenodd"/><path fill="#fff" d="M44.4406 173L41.8946 160.555H43.8896L45.0676 167.053C45.169 167.724 45.2766 168.396 45.3906 169.067C45.5046 169.726 45.6186 170.384 45.7326 171.043H45.8086C45.9353 170.384 46.0683 169.719 46.2076 169.048C46.3596 168.377 46.5053 167.712 46.6446 167.053L48.2596 160.555H49.9696L51.5846 167.053C51.724 167.712 51.8633 168.377 52.0026 169.048C52.1546 169.707 52.3003 170.372 52.4396 171.043H52.5156C52.617 170.372 52.7183 169.707 52.8196 169.048C52.9336 168.377 53.0476 167.712 53.1616 167.053L54.3396 160.555H56.2016L53.7316 173H51.3566L49.6656 166.046C49.5643 165.552 49.463 165.071 49.3616 164.602C49.273 164.133 49.1843 163.665 49.0956 163.196H49.0196C48.931 163.665 48.836 164.133 48.7346 164.602C48.6333 165.071 48.532 165.552 48.4306 166.046L46.7776 173H44.4406ZM61.9386 173.228C61.0899 173.228 60.3236 173.038 59.6396 172.658C58.9683 172.265 58.4299 171.708 58.0246 170.986C57.6193 170.264 57.4166 169.39 57.4166 168.364C57.4166 167.363 57.6193 166.502 58.0246 165.78C58.4299 165.045 58.9556 164.482 59.6016 164.089C60.2476 163.684 60.9316 163.481 61.6536 163.481C62.4643 163.481 63.1483 163.665 63.7056 164.032C64.2756 164.399 64.7063 164.912 64.9976 165.571C65.2889 166.23 65.4346 166.996 65.4346 167.87C65.4346 168.047 65.4219 168.231 65.3966 168.421C65.3839 168.598 65.3649 168.744 65.3396 168.858H58.9176L58.8986 167.528H63.7626C63.7626 166.717 63.5853 166.09 63.2306 165.647C62.8886 165.204 62.3756 164.982 61.6916 164.982C61.2863 164.982 60.8936 165.096 60.5136 165.324C60.1336 165.552 59.8169 165.919 59.5636 166.426C59.3229 166.92 59.2026 167.566 59.2026 168.364C59.2026 169.137 59.3419 169.77 59.6206 170.264C59.8993 170.758 60.2603 171.125 60.7036 171.366C61.1596 171.607 61.6536 171.727 62.1856 171.727C62.6036 171.727 62.9899 171.664 63.3446 171.537C63.7119 171.41 64.0666 171.239 64.4086 171.024L65.0736 172.24C64.6429 172.519 64.1616 172.753 63.6296 172.943C63.1103 173.133 62.5466 173.228 61.9386 173.228ZM71.5744 173V160.555H75.4314C76.2801 160.555 77.0338 160.656 77.6924 160.859C78.3511 161.049 78.8641 161.372 79.2314 161.828C79.6114 162.271 79.8014 162.867 79.8014 163.614C79.8014 164.209 79.6431 164.76 79.3264 165.267C79.0224 165.774 78.5918 166.122 78.0344 166.312V166.388C78.7438 166.527 79.3264 166.844 79.7824 167.338C80.2511 167.832 80.4854 168.503 80.4854 169.352C80.4854 170.175 80.2764 170.859 79.8584 171.404C79.4531 171.936 78.8894 172.335 78.1674 172.601C77.4581 172.867 76.6474 173 75.7354 173H71.5744ZM73.5124 171.48H75.5074C76.4954 171.48 77.2554 171.303 77.7874 170.948C78.3194 170.581 78.5854 170.017 78.5854 169.257C78.5854 168.548 78.3194 168.035 77.7874 167.718C77.2681 167.389 76.5081 167.224 75.5074 167.224H73.5124V171.48ZM73.5124 165.761H75.2034C76.1534 165.761 76.8374 165.59 77.2554 165.248C77.6861 164.906 77.9014 164.45 77.9014 163.88C77.9014 163.221 77.6798 162.759 77.2364 162.493C76.7931 162.214 76.1344 162.075 75.2604 162.075H73.5124V165.761ZM82.6661 173V163.709H84.2431L84.3951 165.381H84.4521C84.7815 164.786 85.1741 164.323 85.6301 163.994C86.0988 163.652 86.5865 163.481 87.0931 163.481C87.3085 163.481 87.4985 163.5 87.6631 163.538C87.8278 163.563 87.9798 163.608 88.1191 163.671L87.7771 165.343C87.6125 165.292 87.4605 165.254 87.3211 165.229C87.1945 165.204 87.0361 165.191 86.8461 165.191C86.4661 165.191 86.0671 165.343 85.6491 165.647C85.2311 165.938 84.8765 166.458 84.5851 167.205V173H82.6661ZM93.2739 173.228C92.5012 173.228 91.7856 173.038 91.1269 172.658C90.4682 172.278 89.9299 171.727 89.5119 171.005C89.1066 170.27 88.9039 169.39 88.9039 168.364C88.9039 167.338 89.1066 166.464 89.5119 165.742C89.9299 165.007 90.4682 164.45 91.1269 164.07C91.7856 163.677 92.5012 163.481 93.2739 163.481C94.0339 163.481 94.7432 163.677 95.4019 164.07C96.0732 164.45 96.6116 165.007 97.0169 165.742C97.4349 166.464 97.6439 167.338 97.6439 168.364C97.6439 169.39 97.4349 170.27 97.0169 171.005C96.6116 171.727 96.0732 172.278 95.4019 172.658C94.7432 173.038 94.0339 173.228 93.2739 173.228ZM93.2739 171.651C93.7679 171.651 94.1922 171.518 94.5469 171.252C94.9142 170.973 95.1929 170.587 95.3829 170.093C95.5729 169.599 95.6679 169.023 95.6679 168.364C95.6679 167.705 95.5729 167.129 95.3829 166.635C95.1929 166.128 94.9142 165.742 94.5469 165.476C94.1922 165.197 93.7679 165.058 93.2739 165.058C92.7799 165.058 92.3556 165.197 92.0009 165.476C91.6462 165.742 91.3676 166.128 91.1649 166.635C90.9749 167.129 90.8799 167.705 90.8799 168.364C90.8799 169.023 90.9749 169.599 91.1649 170.093C91.3676 170.587 91.6462 170.973 92.0009 171.252C92.3556 171.518 92.7799 171.651 93.2739 171.651ZM99.922 173V159.529H101.803V168.25H101.86L105.527 163.709H107.636L104.482 167.471L107.997 173H105.907L103.38 168.782L101.803 170.606V173H99.922ZM113.484 173.228C112.635 173.228 111.869 173.038 111.185 172.658C110.513 172.265 109.975 171.708 109.57 170.986C109.164 170.264 108.962 169.39 108.962 168.364C108.962 167.363 109.164 166.502 109.57 165.78C109.975 165.045 110.501 164.482 111.147 164.089C111.793 163.684 112.477 163.481 113.199 163.481C114.009 163.481 114.693 163.665 115.251 164.032C115.821 164.399 116.251 164.912 116.543 165.571C116.834 166.23 116.98 166.996 116.98 167.87C116.98 168.047 116.967 168.231 116.942 168.421C116.929 168.598 116.91 168.744 116.885 168.858H110.463L110.444 167.528H115.308C115.308 166.717 115.13 166.09 114.776 165.647C114.434 165.204 113.921 164.982 113.237 164.982C112.831 164.982 112.439 165.096 112.059 165.324C111.679 165.552 111.362 165.919 111.109 166.426C110.868 166.92 110.748 167.566 110.748 168.364C110.748 169.137 110.887 169.77 111.166 170.264C111.444 170.758 111.805 171.125 112.249 171.366C112.705 171.607 113.199 171.727 113.731 171.727C114.149 171.727 114.535 171.664 114.89 171.537C115.257 171.41 115.612 171.239 115.954 171.024L116.619 172.24C116.188 172.519 115.707 172.753 115.175 172.943C114.655 173.133 114.092 173.228 113.484 173.228ZM42.5268 198.228C41.6782 198.228 40.8738 198.063 40.1138 197.734C39.3538 197.405 38.6825 196.955 38.0998 196.385L39.2398 195.074C39.6832 195.517 40.1962 195.872 40.7788 196.138C41.3615 196.404 41.9568 196.537 42.5648 196.537C43.3248 196.537 43.9075 196.379 44.3128 196.062C44.7182 195.733 44.9208 195.296 44.9208 194.751C44.9208 194.371 44.8322 194.067 44.6548 193.839C44.4902 193.611 44.2558 193.415 43.9518 193.25C43.6605 193.085 43.3185 192.921 42.9258 192.756L41.1968 191.996C40.7915 191.831 40.3925 191.61 39.9998 191.331C39.6198 191.052 39.3032 190.704 39.0498 190.286C38.7965 189.868 38.6698 189.355 38.6698 188.747C38.6698 188.088 38.8472 187.506 39.2018 186.999C39.5565 186.48 40.0378 186.074 40.6458 185.783C41.2538 185.479 41.9505 185.327 42.7358 185.327C43.4705 185.327 44.1608 185.473 44.8068 185.764C45.4655 186.043 46.0292 186.416 46.4978 186.885L45.4908 188.12C45.1108 187.778 44.6928 187.512 44.2368 187.322C43.7808 187.119 43.2805 187.018 42.7358 187.018C42.1025 187.018 41.5895 187.164 41.1968 187.455C40.8168 187.734 40.6268 188.126 40.6268 188.633C40.6268 188.988 40.7218 189.279 40.9118 189.507C41.1018 189.735 41.3552 189.925 41.6718 190.077C41.9885 190.229 42.3115 190.381 42.6408 190.533L44.3508 191.255C44.8448 191.458 45.2818 191.705 45.6618 191.996C46.0418 192.287 46.3395 192.642 46.5548 193.06C46.7828 193.478 46.8968 193.991 46.8968 194.599C46.8968 195.27 46.7195 195.885 46.3648 196.442C46.0228 196.987 45.5225 197.424 44.8638 197.753C44.2052 198.07 43.4262 198.228 42.5268 198.228ZM52.7876 198.228C52.0149 198.228 51.2993 198.038 50.6406 197.658C49.9819 197.278 49.4436 196.727 49.0256 196.005C48.6203 195.27 48.4176 194.39 48.4176 193.364C48.4176 192.338 48.6203 191.464 49.0256 190.742C49.4436 190.007 49.9819 189.45 50.6406 189.07C51.2993 188.677 52.0149 188.481 52.7876 188.481C53.5476 188.481 54.2569 188.677 54.9156 189.07C55.5869 189.45 56.1253 190.007 56.5306 190.742C56.9486 191.464 57.1576 192.338 57.1576 193.364C57.1576 194.39 56.9486 195.27 56.5306 196.005C56.1253 196.727 55.5869 197.278 54.9156 197.658C54.2569 198.038 53.5476 198.228 52.7876 198.228ZM52.7876 196.651C53.2816 196.651 53.7059 196.518 54.0606 196.252C54.4279 195.973 54.7066 195.587 54.8966 195.093C55.0866 194.599 55.1816 194.023 55.1816 193.364C55.1816 192.705 55.0866 192.129 54.8966 191.635C54.7066 191.128 54.4279 190.742 54.0606 190.476C53.7059 190.197 53.2816 190.058 52.7876 190.058C52.2936 190.058 51.8693 190.197 51.5146 190.476C51.1599 190.742 50.8813 191.128 50.6786 191.635C50.4886 192.129 50.3936 192.705 50.3936 193.364C50.3936 194.023 50.4886 194.599 50.6786 195.093C50.8813 195.587 51.1599 195.973 51.5146 196.252C51.8693 196.518 52.2936 196.651 52.7876 196.651ZM59.4357 198V188.709H61.0127L61.1647 190.02H61.2217C61.6143 189.589 62.045 189.228 62.5137 188.937C62.995 188.633 63.5207 188.481 64.0907 188.481C64.7873 188.481 65.3383 188.633 65.7437 188.937C66.149 189.241 66.453 189.659 66.6557 190.191C67.1117 189.697 67.5803 189.292 68.0617 188.975C68.5557 188.646 69.094 188.481 69.6767 188.481C70.652 188.481 71.3677 188.798 71.8237 189.431C72.2923 190.064 72.5267 190.97 72.5267 192.148V198H70.6077V192.395C70.6077 191.584 70.481 191.008 70.2277 190.666C69.987 190.311 69.5943 190.134 69.0497 190.134C68.7203 190.134 68.3847 190.242 68.0427 190.457C67.7007 190.66 67.3333 190.976 66.9407 191.407V198H65.0217V192.395C65.0217 191.584 64.895 191.008 64.6417 190.666C64.401 190.311 64.0083 190.134 63.4637 190.134C62.8303 190.134 62.1273 190.558 61.3547 191.407V198H59.4357ZM79.213 198.228C78.3644 198.228 77.598 198.038 76.914 197.658C76.2427 197.265 75.7044 196.708 75.299 195.986C74.8937 195.264 74.691 194.39 74.691 193.364C74.691 192.363 74.8937 191.502 75.299 190.78C75.7044 190.045 76.23 189.482 76.876 189.089C77.522 188.684 78.206 188.481 78.928 188.481C79.7387 188.481 80.4227 188.665 80.98 189.032C81.55 189.399 81.9807 189.912 82.272 190.571C82.5634 191.23 82.709 191.996 82.709 192.87C82.709 193.047 82.6964 193.231 82.671 193.421C82.6584 193.598 82.6394 193.744 82.614 193.858H76.192L76.173 192.528H81.037C81.037 191.717 80.8597 191.09 80.505 190.647C80.163 190.204 79.65 189.982 78.966 189.982C78.5607 189.982 78.168 190.096 77.788 190.324C77.408 190.552 77.0914 190.919 76.838 191.426C76.5974 191.92 76.477 192.566 76.477 193.364C76.477 194.137 76.6164 194.77 76.895 195.264C77.1737 195.758 77.5347 196.125 77.978 196.366C78.434 196.607 78.928 196.727 79.46 196.727C79.878 196.727 80.2644 196.664 80.619 196.537C80.9864 196.41 81.341 196.239 81.683 196.024L82.348 197.24C81.9174 197.519 81.436 197.753 80.904 197.943C80.3847 198.133 79.821 198.228 79.213 198.228ZM87.9901 198.228C86.9515 198.228 86.2231 197.93 85.8051 197.335C85.3871 196.727 85.1781 195.942 85.1781 194.979V190.248H83.8291V188.804L85.2731 188.709L85.5011 186.144H87.0971V188.709H89.5291V190.248H87.0971V194.998C87.0971 195.543 87.2048 195.961 87.4201 196.252C87.6355 196.543 87.9838 196.689 88.4651 196.689C88.6298 196.689 88.8008 196.67 88.9781 196.632C89.1681 196.581 89.3328 196.524 89.4721 196.461L89.8141 197.886C89.5608 197.975 89.2758 198.051 88.9591 198.114C88.6425 198.19 88.3195 198.228 87.9901 198.228ZM91.5353 198V184.529H93.4543V188.101L93.3783 189.944C93.7836 189.551 94.2269 189.209 94.7083 188.918C95.2023 188.627 95.7659 188.481 96.3993 188.481C97.3873 188.481 98.1093 188.798 98.5653 189.431C99.0213 190.064 99.2493 190.97 99.2493 192.148V198H97.3303V192.395C97.3303 191.584 97.2036 191.008 96.9503 190.666C96.7096 190.311 96.3106 190.134 95.7533 190.134C95.3099 190.134 94.9173 190.242 94.5753 190.457C94.2459 190.672 93.8723 190.989 93.4543 191.407V198H91.5353ZM102.019 198V188.709H103.938V198H102.019ZM102.988 186.961C102.658 186.961 102.38 186.853 102.152 186.638C101.924 186.41 101.81 186.131 101.81 185.802C101.81 185.473 101.924 185.2 102.152 184.985C102.38 184.77 102.658 184.662 102.988 184.662C103.33 184.662 103.608 184.77 103.824 184.985C104.052 185.2 104.166 185.473 104.166 185.802C104.166 186.131 104.052 186.41 103.824 186.638C103.608 186.853 103.33 186.961 102.988 186.961ZM106.861 198V188.709H108.438L108.59 190.001H108.647C109.078 189.583 109.54 189.228 110.034 188.937C110.528 188.633 111.092 188.481 111.725 188.481C112.713 188.481 113.435 188.798 113.891 189.431C114.347 190.064 114.575 190.97 114.575 192.148V198H112.656V192.395C112.656 191.584 112.53 191.008 112.276 190.666C112.036 190.311 111.637 190.134 111.079 190.134C110.636 190.134 110.243 190.242 109.901 190.457C109.572 190.672 109.198 190.989 108.78 191.407V198H106.861ZM120.574 202.18C119.827 202.18 119.162 202.085 118.579 201.895C117.996 201.718 117.54 201.445 117.211 201.078C116.882 200.723 116.717 200.274 116.717 199.729C116.717 199.336 116.837 198.963 117.078 198.608C117.319 198.266 117.648 197.962 118.066 197.696V197.62C117.838 197.455 117.642 197.253 117.477 197.012C117.312 196.759 117.23 196.448 117.23 196.081C117.23 195.701 117.338 195.365 117.553 195.074C117.768 194.77 118.003 194.529 118.256 194.352V194.276C117.952 194.035 117.673 193.7 117.42 193.269C117.167 192.838 117.04 192.351 117.04 191.806C117.04 191.109 117.205 190.514 117.534 190.02C117.876 189.526 118.313 189.146 118.845 188.88C119.39 188.614 119.985 188.481 120.631 188.481C120.884 188.481 121.125 188.506 121.353 188.557C121.594 188.595 121.803 188.646 121.98 188.709H125.267V190.153H123.481C123.658 190.343 123.804 190.59 123.918 190.894C124.045 191.185 124.108 191.508 124.108 191.863C124.108 192.534 123.95 193.111 123.633 193.592C123.329 194.061 122.911 194.422 122.379 194.675C121.86 194.928 121.277 195.055 120.631 195.055C120.416 195.055 120.194 195.03 119.966 194.979C119.751 194.928 119.535 194.859 119.32 194.77C119.168 194.897 119.041 195.036 118.94 195.188C118.851 195.34 118.807 195.53 118.807 195.758C118.807 196.037 118.921 196.258 119.149 196.423C119.377 196.588 119.782 196.67 120.365 196.67H122.075C123.177 196.67 124.007 196.854 124.564 197.221C125.134 197.576 125.419 198.146 125.419 198.931C125.419 199.526 125.216 200.071 124.811 200.565C124.418 201.059 123.861 201.452 123.139 201.743C122.417 202.034 121.562 202.18 120.574 202.18ZM120.859 200.907C121.404 200.907 121.872 200.831 122.265 200.679C122.67 200.527 122.987 200.318 123.215 200.052C123.443 199.799 123.557 199.526 123.557 199.235C123.557 198.842 123.405 198.57 123.101 198.418C122.81 198.279 122.385 198.209 121.828 198.209H120.403C120.188 198.209 119.972 198.196 119.757 198.171C119.554 198.146 119.358 198.114 119.168 198.076C118.877 198.279 118.668 198.494 118.541 198.722C118.414 198.963 118.351 199.203 118.351 199.444C118.351 199.9 118.573 200.255 119.016 200.508C119.472 200.774 120.086 200.907 120.859 200.907ZM120.631 193.82C120.96 193.82 121.258 193.744 121.524 193.592C121.79 193.427 121.999 193.193 122.151 192.889C122.316 192.585 122.398 192.224 122.398 191.806C122.398 191.388 122.316 191.033 122.151 190.742C121.999 190.451 121.79 190.229 121.524 190.077C121.258 189.912 120.96 189.83 120.631 189.83C120.137 189.83 119.719 190.001 119.377 190.343C119.035 190.685 118.864 191.173 118.864 191.806C118.864 192.224 118.94 192.585 119.092 192.889C119.257 193.193 119.472 193.427 119.738 193.592C120.004 193.744 120.302 193.82 120.631 193.82Z"/><path fill="#fff" d="M213.187 189V178.34C213.187 177.872 213.205 177.317 213.239 176.676C213.274 176.017 213.3 175.463 213.317 175.012H213.213C213.005 175.411 212.789 175.818 212.563 176.234C212.338 176.633 212.104 177.049 211.861 177.482L208.481 182.552H217.815V184.606H205.829V182.838L212.615 172.438H215.657V189H213.187ZM225.092 189.312C223.393 189.312 222.05 188.567 221.062 187.076C220.091 185.585 219.606 183.445 219.606 180.654C219.606 177.863 220.091 175.749 221.062 174.31C222.05 172.854 223.393 172.126 225.092 172.126C226.773 172.126 228.108 172.854 229.096 174.31C230.084 175.766 230.578 177.881 230.578 180.654C230.578 183.445 230.084 185.585 229.096 187.076C228.108 188.567 226.773 189.312 225.092 189.312ZM225.092 187.232C225.664 187.232 226.175 187.015 226.626 186.582C227.076 186.149 227.423 185.455 227.666 184.502C227.926 183.531 228.056 182.249 228.056 180.654C228.056 179.059 227.926 177.794 227.666 176.858C227.423 175.905 227.076 175.229 226.626 174.83C226.175 174.414 225.664 174.206 225.092 174.206C224.502 174.206 223.982 174.414 223.532 174.83C223.098 175.229 222.752 175.905 222.492 176.858C222.249 177.794 222.128 179.059 222.128 180.654C222.128 182.249 222.249 183.531 222.492 184.502C222.752 185.455 223.098 186.149 223.532 186.582C223.982 187.015 224.502 187.232 225.092 187.232ZM239.492 189V178.34C239.492 177.872 239.509 177.317 239.544 176.676C239.579 176.017 239.605 175.463 239.622 175.012H239.518C239.31 175.411 239.093 175.818 238.868 176.234C238.643 176.633 238.409 177.049 238.166 177.482L234.786 182.552H244.12V184.606H232.134V182.838L238.92 172.438H241.962V189H239.492ZM252.259 189V171.97H257.407C258.673 171.97 259.791 172.135 260.761 172.464C261.732 172.776 262.495 173.313 263.049 174.076C263.621 174.821 263.907 175.835 263.907 177.118C263.907 178.349 263.63 179.363 263.075 180.16C262.521 180.957 261.758 181.555 260.787 181.954C259.834 182.335 258.742 182.526 257.511 182.526H254.911V189H252.259ZM254.911 180.394H257.251C258.621 180.394 259.635 180.125 260.293 179.588C260.952 179.051 261.281 178.227 261.281 177.118C261.281 175.974 260.935 175.185 260.241 174.752C259.548 174.319 258.517 174.102 257.147 174.102H254.911V180.394ZM269.997 189.312C269.269 189.312 268.619 189.165 268.047 188.87C267.492 188.558 267.05 188.133 266.721 187.596C266.409 187.041 266.253 186.391 266.253 185.646C266.253 184.277 266.859 183.219 268.073 182.474C269.286 181.729 271.219 181.209 273.871 180.914C273.871 180.429 273.793 179.969 273.637 179.536C273.498 179.103 273.247 178.756 272.883 178.496C272.536 178.236 272.051 178.106 271.427 178.106C270.751 178.106 270.101 178.236 269.477 178.496C268.87 178.756 268.298 179.059 267.761 179.406L266.773 177.638C267.206 177.361 267.691 177.101 268.229 176.858C268.766 176.598 269.338 176.39 269.945 176.234C270.569 176.061 271.219 175.974 271.895 175.974C272.935 175.974 273.793 176.191 274.469 176.624C275.162 177.057 275.673 177.673 276.003 178.47C276.332 179.267 276.497 180.229 276.497 181.356V189H274.339L274.131 187.544H274.053C273.481 188.029 272.857 188.445 272.181 188.792C271.505 189.139 270.777 189.312 269.997 189.312ZM270.803 187.232C271.357 187.232 271.877 187.102 272.363 186.842C272.848 186.582 273.351 186.209 273.871 185.724V182.578C272.605 182.734 271.6 182.942 270.855 183.202C270.127 183.462 269.598 183.783 269.269 184.164C268.957 184.545 268.801 184.97 268.801 185.438C268.801 186.062 268.991 186.521 269.373 186.816C269.754 187.093 270.231 187.232 270.803 187.232ZM284.628 194.72C283.605 194.72 282.695 194.59 281.898 194.33C281.1 194.087 280.476 193.715 280.026 193.212C279.575 192.727 279.35 192.111 279.35 191.366C279.35 190.829 279.514 190.317 279.844 189.832C280.173 189.364 280.624 188.948 281.196 188.584V188.48C280.884 188.255 280.615 187.977 280.39 187.648C280.164 187.301 280.052 186.877 280.052 186.374C280.052 185.854 280.199 185.395 280.494 184.996C280.788 184.58 281.109 184.251 281.456 184.008V183.904C281.04 183.575 280.658 183.115 280.312 182.526C279.965 181.937 279.792 181.269 279.792 180.524C279.792 179.571 280.017 178.756 280.468 178.08C280.936 177.404 281.534 176.884 282.262 176.52C283.007 176.156 283.822 175.974 284.706 175.974C285.052 175.974 285.382 176.009 285.694 176.078C286.023 176.13 286.309 176.199 286.552 176.286H291.05V178.262H288.606C288.848 178.522 289.048 178.86 289.204 179.276C289.377 179.675 289.464 180.117 289.464 180.602C289.464 181.521 289.247 182.309 288.814 182.968C288.398 183.609 287.826 184.103 287.098 184.45C286.387 184.797 285.59 184.97 284.706 184.97C284.411 184.97 284.108 184.935 283.796 184.866C283.501 184.797 283.206 184.701 282.912 184.58C282.704 184.753 282.53 184.944 282.392 185.152C282.27 185.36 282.21 185.62 282.21 185.932C282.21 186.313 282.366 186.617 282.678 186.842C282.99 187.067 283.544 187.18 284.342 187.18H286.682C288.19 187.18 289.325 187.431 290.088 187.934C290.868 188.419 291.258 189.199 291.258 190.274C291.258 191.089 290.98 191.834 290.426 192.51C289.888 193.186 289.126 193.723 288.138 194.122C287.15 194.521 285.98 194.72 284.628 194.72ZM285.018 192.978C285.763 192.978 286.404 192.874 286.942 192.666C287.496 192.458 287.93 192.172 288.242 191.808C288.554 191.461 288.71 191.089 288.71 190.69C288.71 190.153 288.502 189.78 288.086 189.572C287.687 189.381 287.106 189.286 286.344 189.286H284.394C284.099 189.286 283.804 189.269 283.51 189.234C283.232 189.199 282.964 189.156 282.704 189.104C282.305 189.381 282.019 189.676 281.846 189.988C281.672 190.317 281.586 190.647 281.586 190.976C281.586 191.6 281.889 192.085 282.496 192.432C283.12 192.796 283.96 192.978 285.018 192.978ZM284.706 183.28C285.156 183.28 285.564 183.176 285.928 182.968C286.292 182.743 286.578 182.422 286.786 182.006C287.011 181.59 287.124 181.096 287.124 180.524C287.124 179.952 287.011 179.467 286.786 179.068C286.578 178.669 286.292 178.366 285.928 178.158C285.564 177.933 285.156 177.82 284.706 177.82C284.03 177.82 283.458 178.054 282.99 178.522C282.522 178.99 282.288 179.657 282.288 180.524C282.288 181.096 282.392 181.59 282.6 182.006C282.825 182.422 283.12 182.743 283.484 182.968C283.848 183.176 284.255 183.28 284.706 183.28ZM298.894 189.312C297.733 189.312 296.684 189.052 295.748 188.532C294.829 187.995 294.093 187.232 293.538 186.244C292.983 185.256 292.706 184.06 292.706 182.656C292.706 181.287 292.983 180.108 293.538 179.12C294.093 178.115 294.812 177.343 295.696 176.806C296.58 176.251 297.516 175.974 298.504 175.974C299.613 175.974 300.549 176.225 301.312 176.728C302.092 177.231 302.681 177.933 303.08 178.834C303.479 179.735 303.678 180.784 303.678 181.98C303.678 182.223 303.661 182.474 303.626 182.734C303.609 182.977 303.583 183.176 303.548 183.332H294.76L294.734 181.512H301.39C301.39 180.403 301.147 179.545 300.662 178.938C300.194 178.331 299.492 178.028 298.556 178.028C298.001 178.028 297.464 178.184 296.944 178.496C296.424 178.808 295.991 179.311 295.644 180.004C295.315 180.68 295.15 181.564 295.15 182.656C295.15 183.713 295.341 184.58 295.722 185.256C296.103 185.932 296.597 186.435 297.204 186.764C297.828 187.093 298.504 187.258 299.232 187.258C299.804 187.258 300.333 187.171 300.818 186.998C301.321 186.825 301.806 186.591 302.274 186.296L303.184 187.96C302.595 188.341 301.936 188.662 301.208 188.922C300.497 189.182 299.726 189.312 298.894 189.312Z"/><path fill="#fff" d="M388.806 173V168.288L385.063 160.555H387.134L388.597 163.88C388.787 164.349 388.97 164.805 389.148 165.248C389.338 165.691 389.534 166.147 389.737 166.616H389.813C390.028 166.147 390.231 165.691 390.421 165.248C390.623 164.805 390.82 164.349 391.01 163.88L392.473 160.555H394.487L390.744 168.288V173H388.806ZM399.621 173.228C398.848 173.228 398.133 173.038 397.474 172.658C396.815 172.278 396.277 171.727 395.859 171.005C395.454 170.27 395.251 169.39 395.251 168.364C395.251 167.338 395.454 166.464 395.859 165.742C396.277 165.007 396.815 164.45 397.474 164.07C398.133 163.677 398.848 163.481 399.621 163.481C400.381 163.481 401.09 163.677 401.749 164.07C402.42 164.45 402.959 165.007 403.364 165.742C403.782 166.464 403.991 167.338 403.991 168.364C403.991 169.39 403.782 170.27 403.364 171.005C402.959 171.727 402.42 172.278 401.749 172.658C401.09 173.038 400.381 173.228 399.621 173.228ZM399.621 171.651C400.115 171.651 400.539 171.518 400.894 171.252C401.261 170.973 401.54 170.587 401.73 170.093C401.92 169.599 402.015 169.023 402.015 168.364C402.015 167.705 401.92 167.129 401.73 166.635C401.54 166.128 401.261 165.742 400.894 165.476C400.539 165.197 400.115 165.058 399.621 165.058C399.127 165.058 398.703 165.197 398.348 165.476C397.993 165.742 397.715 166.128 397.512 166.635C397.322 167.129 397.227 167.705 397.227 168.364C397.227 169.023 397.322 169.599 397.512 170.093C397.715 170.587 397.993 170.973 398.348 171.252C398.703 171.518 399.127 171.651 399.621 171.651ZM409.005 173.228C408.03 173.228 407.308 172.911 406.839 172.278C406.383 171.645 406.155 170.739 406.155 169.561V163.709H408.074V169.314C408.074 170.125 408.201 170.707 408.454 171.062C408.707 171.404 409.106 171.575 409.651 171.575C410.082 171.575 410.468 171.467 410.81 171.252C411.152 171.024 411.513 170.663 411.893 170.169V163.709H413.812V173H412.235L412.083 171.594H412.026C411.608 172.088 411.158 172.487 410.677 172.791C410.208 173.082 409.651 173.228 409.005 173.228ZM425.554 173.228C424.515 173.228 423.578 172.981 422.742 172.487C421.906 171.98 421.241 171.246 420.747 170.283C420.265 169.32 420.025 168.161 420.025 166.806C420.025 165.793 420.164 164.887 420.443 164.089C420.734 163.291 421.133 162.613 421.64 162.056C422.159 161.486 422.761 161.055 423.445 160.764C424.129 160.473 424.863 160.327 425.649 160.327C426.421 160.327 427.105 160.485 427.701 160.802C428.296 161.106 428.784 161.467 429.164 161.885L428.119 163.139C427.802 162.797 427.441 162.525 427.036 162.322C426.643 162.119 426.193 162.018 425.687 162.018C424.965 162.018 424.325 162.208 423.768 162.588C423.223 162.968 422.792 163.513 422.476 164.222C422.172 164.931 422.02 165.774 422.02 166.749C422.02 167.737 422.165 168.592 422.457 169.314C422.748 170.023 423.166 170.574 423.711 170.967C424.255 171.347 424.895 171.537 425.63 171.537C426.2 171.537 426.706 171.417 427.15 171.176C427.606 170.935 428.017 170.612 428.385 170.207L429.43 171.423C428.936 171.993 428.366 172.436 427.72 172.753C427.086 173.07 426.364 173.228 425.554 173.228ZM433.652 173.228C433.12 173.228 432.645 173.12 432.227 172.905C431.822 172.677 431.499 172.367 431.258 171.974C431.03 171.569 430.916 171.094 430.916 170.549C430.916 169.548 431.359 168.776 432.246 168.231C433.133 167.686 434.545 167.306 436.483 167.091C436.483 166.736 436.426 166.401 436.312 166.084C436.211 165.767 436.027 165.514 435.761 165.324C435.508 165.134 435.153 165.039 434.697 165.039C434.203 165.039 433.728 165.134 433.272 165.324C432.829 165.514 432.411 165.736 432.018 165.989L431.296 164.697C431.613 164.494 431.967 164.304 432.36 164.127C432.753 163.937 433.171 163.785 433.614 163.671C434.07 163.544 434.545 163.481 435.039 163.481C435.799 163.481 436.426 163.639 436.92 163.956C437.427 164.273 437.8 164.722 438.041 165.305C438.282 165.888 438.402 166.591 438.402 167.414V173H436.825L436.673 171.936H436.616C436.198 172.291 435.742 172.595 435.248 172.848C434.754 173.101 434.222 173.228 433.652 173.228ZM434.241 171.708C434.646 171.708 435.026 171.613 435.381 171.423C435.736 171.233 436.103 170.961 436.483 170.606V168.307C435.558 168.421 434.824 168.573 434.279 168.763C433.747 168.953 433.361 169.187 433.12 169.466C432.892 169.745 432.778 170.055 432.778 170.397C432.778 170.853 432.917 171.189 433.196 171.404C433.475 171.607 433.823 171.708 434.241 171.708ZM441.152 173V163.709H442.729L442.881 165.001H442.938C443.369 164.583 443.831 164.228 444.325 163.937C444.819 163.633 445.383 163.481 446.016 163.481C447.004 163.481 447.726 163.798 448.182 164.431C448.638 165.064 448.866 165.97 448.866 167.148V173H446.947V167.395C446.947 166.584 446.82 166.008 446.567 165.666C446.326 165.311 445.927 165.134 445.37 165.134C444.927 165.134 444.534 165.242 444.192 165.457C443.863 165.672 443.489 165.989 443.071 166.407V173H441.152ZM451.938 165.248L451.444 164.374C451.951 164.07 452.331 163.734 452.584 163.367C452.838 162.987 452.964 162.525 452.964 161.98L452.774 160.612L453.61 161.657C453.484 161.771 453.357 161.86 453.23 161.923C453.104 161.986 452.958 162.018 452.793 162.018C452.489 162.018 452.223 161.923 451.995 161.733C451.767 161.53 451.653 161.264 451.653 160.935C451.653 160.555 451.761 160.264 451.976 160.061C452.192 159.846 452.464 159.738 452.793 159.738C453.237 159.738 453.572 159.909 453.8 160.251C454.041 160.58 454.161 161.055 454.161 161.676C454.161 162.474 453.971 163.171 453.591 163.766C453.224 164.349 452.673 164.843 451.938 165.248ZM459.798 173.228C458.76 173.228 458.031 172.93 457.613 172.335C457.195 171.727 456.986 170.942 456.986 169.979V165.248H455.637V163.804L457.081 163.709L457.309 161.144H458.905V163.709H461.337V165.248H458.905V169.998C458.905 170.543 459.013 170.961 459.228 171.252C459.444 171.543 459.792 171.689 460.273 171.689C460.438 171.689 460.609 171.67 460.786 171.632C460.976 171.581 461.141 171.524 461.28 171.461L461.622 172.886C461.369 172.975 461.084 173.051 460.767 173.114C460.451 173.19 460.128 173.228 459.798 173.228ZM407.854 198V187.189H404.187V185.555H413.459V187.189H409.792V198H407.854ZM415.853 201.895C415.613 201.895 415.397 201.876 415.207 201.838C415.03 201.8 414.859 201.756 414.694 201.705L415.055 200.204C415.144 200.229 415.252 200.255 415.378 200.28C415.505 200.318 415.625 200.337 415.739 200.337C416.246 200.337 416.658 200.166 416.974 199.824C417.291 199.495 417.532 199.077 417.696 198.57L417.886 197.943L414.2 188.709H416.157L417.886 193.516C418.026 193.921 418.165 194.352 418.304 194.808C418.456 195.251 418.602 195.695 418.741 196.138H418.817C418.944 195.707 419.064 195.27 419.178 194.827C419.305 194.371 419.432 193.934 419.558 193.516L421.059 188.709H422.921L419.501 198.57C419.261 199.229 418.982 199.805 418.665 200.299C418.349 200.806 417.962 201.198 417.506 201.477C417.05 201.756 416.499 201.895 415.853 201.895ZM424.62 201.781V188.709H426.197L426.349 189.735H426.406C426.811 189.393 427.261 189.102 427.755 188.861C428.249 188.608 428.755 188.481 429.275 188.481C430.06 188.481 430.725 188.677 431.27 189.07C431.814 189.463 432.226 190.014 432.505 190.723C432.796 191.432 432.942 192.262 432.942 193.212C432.942 194.276 432.752 195.182 432.372 195.929C431.992 196.676 431.498 197.246 430.89 197.639C430.294 198.032 429.648 198.228 428.952 198.228C428.534 198.228 428.116 198.139 427.698 197.962C427.28 197.772 426.874 197.512 426.482 197.183L426.539 198.76V201.781H424.62ZM428.572 196.632C429.028 196.632 429.433 196.505 429.788 196.252C430.155 195.986 430.44 195.6 430.643 195.093C430.858 194.586 430.966 193.966 430.966 193.231C430.966 192.585 430.89 192.028 430.738 191.559C430.586 191.078 430.345 190.71 430.016 190.457C429.699 190.204 429.281 190.077 428.762 190.077C428.407 190.077 428.046 190.172 427.679 190.362C427.324 190.539 426.944 190.824 426.539 191.217V195.777C426.906 196.094 427.267 196.315 427.622 196.442C427.976 196.569 428.293 196.632 428.572 196.632ZM439.128 198.228C438.279 198.228 437.513 198.038 436.829 197.658C436.157 197.265 435.619 196.708 435.214 195.986C434.808 195.264 434.606 194.39 434.606 193.364C434.606 192.363 434.808 191.502 435.214 190.78C435.619 190.045 436.145 189.482 436.791 189.089C437.437 188.684 438.121 188.481 438.843 188.481C439.653 188.481 440.337 188.665 440.895 189.032C441.465 189.399 441.895 189.912 442.187 190.571C442.478 191.23 442.624 191.996 442.624 192.87C442.624 193.047 442.611 193.231 442.586 193.421C442.573 193.598 442.554 193.744 442.529 193.858H436.107L436.088 192.528H440.952C440.952 191.717 440.774 191.09 440.42 190.647C440.078 190.204 439.565 189.982 438.881 189.982C438.475 189.982 438.083 190.096 437.703 190.324C437.323 190.552 437.006 190.919 436.753 191.426C436.512 191.92 436.392 192.566 436.392 193.364C436.392 194.137 436.531 194.77 436.81 195.264C437.088 195.758 437.449 196.125 437.893 196.366C438.349 196.607 438.843 196.727 439.375 196.727C439.793 196.727 440.179 196.664 440.534 196.537C440.901 196.41 441.256 196.239 441.598 196.024L442.263 197.24C441.832 197.519 441.351 197.753 440.819 197.943C440.299 198.133 439.736 198.228 439.128 198.228Z"/></svg>