<svg xmlns="http://www.w3.org/2000/svg" xmlns:xlink="http://www.w3.org/1999/xlink" version="1.1" viewBox="0 0 14 14"><path fill="#ccc" d="M9.057 2.244c0.483-0.604 0.811-1.415 0.724-2.244-0.707 0.035-1.569 0.466-2.069 1.071-0.448 0.518-0.845 1.363-0.742 2.156 0.793 0.069 1.586-0.397 2.087-0.984z"/><path fill="#ccc" d="M9.772 3.382c-1.152-0.069-2.132 0.654-2.682 0.654s-1.393-0.619-2.305-0.603c-1.186 0.017-2.287 0.688-2.889 1.755-1.238 2.134-0.327 5.3 0.877 7.038 0.585 0.86 1.289 1.807 2.218 1.773 0.877-0.034 1.221-0.568 2.288-0.568s1.375 0.568 2.304 0.551c0.963-0.017 1.565-0.86 2.15-1.721 0.671-0.98 0.945-1.927 0.963-1.979-0.017-0.017-1.857-0.723-1.874-2.839-0.017-1.772 1.444-2.615 1.513-2.667-0.826-1.221-2.115-1.359-2.563-1.393z"/></svg>